<?xml version="1.0" encoding="iso-8859-1"?>
<!-- Generator: Adobe Illustrator 16.0.0, SVG Export Plug-In . SVG Version: 6.00 Build 0)  -->
<!DOCTYPE svg PUBLIC "-//W3C//DTD SVG 1.1//EN" "http://www.w3.org/Graphics/SVG/1.1/DTD/svg11.dtd">
<svg version="1.1" id="Capa_1" xmlns="http://www.w3.org/2000/svg" xmlns:xlink="http://www.w3.org/1999/xlink" x="0px" y="0px"
	 width="399.581px" height="399.581px" viewBox="0 0 399.581 399.581" style="enable-background:new 0 0 399.581 399.581;"
	 xml:space="preserve">
<g>
	<g>
		<path d="M67.485,52.871c0.935-0.374,1.823-0.748,2.712-1.122c1.87-0.842,3.857-1.402,5.797-2.058
			c1.355-0.467,2.782-0.794,4.184-1.122c1.8-0.467,3.576-0.934,5.399-1.309c2.338-0.42,4.675-0.748,7.059-1.076
			c1.776-0.187,3.6-0.468,5.4-0.421c0.865,0,1.708,0.045,2.548-0.047c4.207-0.42,8.462-0.234,12.669,0.141
			c3.32,0.327,6.64,0.701,9.912,1.403c2.594,0.607,5.188,1.168,7.761,1.87c2.897,0.841,5.751,1.776,8.555,2.899
			c2.291,0.888,4.557,1.823,6.779,2.851c2.757,1.262,5.283,2.945,7.9,4.394c1.567,0.936,3.109,1.87,4.675,2.805
			c3.132,1.777,6.265,3.553,9.397,5.377c2.29,1.308,4.489,2.665,6.756,3.973c2.571,1.497,5.166,2.946,7.738,4.442
			c2.781,1.636,5.562,3.272,8.368,4.861c2.712,1.59,5.518,2.993,8.181,4.675c3.062,1.917,6.242,3.646,9.397,5.47
			c4.137,2.385,8.226,4.816,12.435,7.152c2.735,1.543,5.377,3.228,8.089,4.817c3.04,1.729,6.077,3.412,9.118,5.188
			c3.483,2.01,6.942,4.067,10.4,6.078c4.044,2.336,8.11,4.675,12.179,7.011c1.869,1.028,3.787,2.104,5.634,3.226
			c2.126,1.31,4.347,2.431,6.474,3.788c2.149,1.355,4.466,2.524,6.705,3.787c1.756,1.028,3.533,2.104,5.284,3.178
			c3.437,1.964,6.895,3.974,10.332,5.985c0.632,0.374,1.005,0.888,1.005,1.635c0.069,2.806,0.188,5.47,0.237,8.228
			c0.139,7.9-0.118,15.802,0.187,23.702c0.256,6.544,0.092,13.044,0.232,19.589c0.189,6.919,0.048,13.884,0.048,20.805l0,0
			c0,5.469,0,10.893,0,16.363c0,1.964,0,3.929,0.022,5.889c0.021,1.263,0.49,1.54,1.613,0.981c0.816-0.42,1.543-1.027,2.385-1.449
			c2.43-1.217,4.744-2.667,7.152-3.974c3.203-1.73,6.334-3.646,9.536-5.376c2.897-1.542,5.658-3.274,8.511-4.863
			c3.879-2.149,7.711-4.395,11.615-6.497c3.061-1.683,6.055-3.508,8.904-5.563c2.643-1.917,5.168-3.929,7.646-6.077
			c2.874-2.479,5.584-5.144,8.062-7.995c2.011-2.384,3.929-4.768,5.705-7.338c1.332-1.966,2.571-3.929,3.74-5.938
			c1.028-1.87,2.01-3.741,2.921-5.705c1.168-2.385,2.128-4.908,3.062-7.48c0.42-1.122,0.676-2.292,1.027-3.459
			c0.467-1.402,0.935-2.804,1.216-4.254c0.421-2.057,0.843-4.114,1.167-6.171c0.422-2.523,0.608-4.955,0.678-7.48
			c0-0.515,0.023-1.027,0.071-1.543c0.28-2.01,0.235-4.068,0.094-6.03c-0.188-2.057-0.236-4.115-0.397-6.171
			c-0.07-0.936-0.188-1.917-0.421-2.851c-0.444-1.871-0.351-3.881-1.053-5.657c0-0.094,0-0.094,0-0.141
			c-0.046-1.777-0.818-3.412-1.237-5.143c-0.281-1.215-0.772-2.384-1.052-3.553c-0.516-2.01-1.287-3.927-2.011-5.797
			c-0.656-1.729-1.358-3.458-2.271-5.047c-1.354-2.385-2.592-4.817-3.904-7.2c-1.821-3.32-3.879-6.404-5.888-9.584
			c-2.104-3.366-4.371-6.685-6.825-9.816c-3.275-4.208-6.498-8.415-10.051-12.389c-2.105-2.339-4.207-4.675-6.359-6.967
			c-4.089-4.3-8.459-8.369-12.948-12.295c-3.365-2.944-6.803-5.703-10.332-8.415c-2.971-2.244-6.124-4.301-9.21-6.359
			c-1.729-1.168-3.414-2.337-5.166-3.412c-2.595-1.542-5.329-2.944-7.926-4.581c-2.801-1.73-5.749-3.227-8.694-4.676
			c-2.619-1.309-5.282-2.571-7.994-3.693c-2.337-0.889-4.559-1.964-6.85-2.992c-0.817-0.327-1.659-0.656-2.454-0.936
			c-1.169-0.42-2.289-0.748-3.458-1.167c-1.964-0.702-3.929-1.403-5.89-2.104c-2.174-0.748-4.395-1.261-6.592-1.963
			c-3.365-1.075-6.826-1.963-10.284-2.757c-4.535-1.028-9.163-1.823-13.769-2.619c-3.366-0.561-6.778-0.795-10.168-1.263
			c-3.039-0.421-6.103-0.513-9.164-0.701c-2.666-0.14-5.376-0.419-8.062-0.327c-0.655,0.046-1.263-0.046-1.895-0.281
			c-0.842-0.327-1.754-0.281-2.619,0c-0.327,0.141-0.678,0.281-1.029,0.281c-1.869,0-3.738,0.187-5.562,0.234
			c-2.151,0-4.254,0.281-6.405,0.327c-3.507,0.047-6.943,0.842-10.449,0.981c-0.724,0-1.449,0.093-2.15,0.233
			c-3.88,0.843-7.808,1.309-11.664,2.011c-3.063,0.608-6.078,1.262-9.093,2.058c-3.506,0.889-6.988,1.87-10.496,2.945
			c-1.986,0.562-3.974,1.216-5.937,1.917c-2.01,0.655-4.021,1.45-5.984,2.197c-1.847,0.702-3.67,1.497-5.47,2.244
			c-1.496,0.607-2.921,1.309-4.418,1.965c-2.15,0.887-4.277,1.87-6.334,2.898c-1.87,0.935-3.739,1.917-5.587,2.898
			c-2.407,1.216-4.698,2.618-7.083,3.928c-1.497,0.794-2.898,1.823-4.395,2.711c-2.43,1.355-4.768,2.805-7.059,4.394
			c-3.133,2.29-6.406,4.348-9.42,6.779c-2.36,1.917-4.932,3.646-7.176,5.704c-1.707,1.543-3.436,3.039-5.188,4.582
			c-0.188,0.14-0.374,0.28-0.539,0.468c-0.374,0.515-0.21,0.935,0.42,1.028C66.645,53.057,67.088,53.01,67.485,52.871z"/>
		<path d="M398.293,188.027c-0.095-1.917-0.609-3.835-0.561-5.798c0.021-1.215-0.048-2.431-0.328-3.599
			c-0.351-1.496-0.42-2.993-0.584-4.535c-0.117-1.122-0.374-2.197-0.562-3.319c-0.303-1.871-0.63-3.647-0.864-5.471
			c-0.236-1.776-1.005-3.505-0.889-5.329c0-0.094-0.021-0.189-0.048-0.233c-0.282-0.701-0.935-0.794-1.404-0.188
			c-0.303,0.327-0.326,0.794-0.42,1.217c-0.515,2.525-0.467,5.142-1.355,7.573c-0.024,0.047-0.024,0.141-0.024,0.141
			c-0.139,1.73-0.815,3.365-1.167,5.049c-0.188,0.934-0.303,1.823-0.654,2.71c-0.89,2.057-1.451,4.254-2.269,6.405
			c-0.841,2.245-1.776,4.489-2.781,6.686c-1.192,2.525-2.407,5.05-3.904,7.434c-0.889,1.45-1.635,2.991-2.617,4.348
			c-1.776,2.429-3.413,4.954-5.329,7.294c-3.273,3.971-6.686,7.76-10.544,11.173c-2.826,2.479-5.726,4.908-8.766,7.2
			c-2.033,1.54-4.207,2.804-6.402,4.112c-3.929,2.291-7.9,4.536-11.921,6.827c-3.038,1.681-6.078,3.41-9.115,5.143
			c-2.782,1.636-5.565,3.225-8.346,4.862c-6.221,3.553-12.458,7.104-18.679,10.706c-4.699,2.712-9.396,5.469-14.072,8.134
			c-2.011,1.168-3.997,2.338-5.984,3.508c-1.309,0.746-2.617,1.588-3.951,2.289c-1.752,0.889-3.459,1.871-5.165,2.852
			c-2.665,1.635-5.424,3.132-8.133,4.719c-3.671,2.152-7.437,4.163-11.131,6.314c-6.402,3.646-12.831,7.34-19.259,11.08
			c-3.412,2.012-6.828,4.069-10.331,5.984c-3.182,1.777-6.314,3.74-9.492,5.565c-3.177,1.823-6.427,3.597-9.628,5.467
			c-0.562,0.283-1.03,0.236-1.567-0.093c-1.846-1.075-3.693-2.149-5.539-3.226c-1.496-0.844-3.086-1.589-4.535-2.572
			c-1.59-1.029-3.273-1.87-4.886-2.851c-2.781-1.683-5.633-3.229-8.463-4.863c-2.875-1.635-5.726-3.272-8.578-4.957
			c-2.852-1.633-5.705-3.271-8.555-4.954c-2.291-1.264-4.582-2.57-6.826-3.833c-2.992-1.729-5.891-3.553-8.905-5.145
			c-2.688-1.495-5.306-3.086-7.924-4.627c-2.571-1.541-5.142-3.132-7.713-4.721c-3.157-1.919-6.358-3.787-9.49-5.75
			c-0.233-0.143-0.515-0.283-0.772-0.327c-0.866-0.233-1.378,0.141-1.238,1.074c0.281,2.057,0.094,4.115,0.094,6.126
			c0.093,7.806,0.045,15.568,0.045,23.329l0,0c0,7.9,0,15.754,0.023,23.607c0,0.654,0.07,1.312,0.117,1.918
			c0.141,1.919,0.701,3.74,0.654,5.657c-0.022,0.326,0.046,0.655,0.141,0.934c0.374,1.357,0.561,2.713,0.772,4.068
			c0.046,0.28,0.117,0.606,0.21,0.934c0.561,1.497,0.749,3.037,1.122,4.579c0.422,1.59,0.982,3.133,1.45,4.675
			c0.538,1.824,1.309,3.554,1.963,5.329c1.075,2.9,2.479,5.61,3.857,8.323c1.402,2.756,3.202,5.282,4.884,7.899
			c1.708,2.712,3.694,5.143,5.844,7.527c1.965,2.244,3.974,4.442,6.289,6.359c1.661,1.402,3.297,2.85,5.026,4.159
			c1.87,1.403,3.81,2.713,5.773,3.974c2.22,1.402,4.558,2.759,6.943,3.928c2.852,1.356,5.728,2.712,8.743,3.74
			c1.917,0.608,3.786,1.402,5.727,1.87c2.688,0.653,5.306,1.308,8.018,1.823c3.668,0.747,7.386,1.169,11.126,1.263
			c6.918,0.14,13.793,0.047,20.663-0.516c1.403-0.093,2.853-0.093,4.207-0.281c2.946-0.514,5.938-0.703,8.881-1.168
			c4.7-0.701,9.397-1.45,14.026-2.525c1.541-0.373,3.039-0.749,4.58-1.027c1.591-0.236,3.132-0.7,4.677-1.168
			c1.424-0.421,2.875-0.796,4.3-1.216c1.59-0.468,3.18-1.076,4.814-1.497c1.217-0.327,2.338-0.89,3.53-1.169
			c1.101-0.282,2.127-0.702,3.155-1.122c1.029-0.421,2.036-0.796,3.04-1.216c2.104-0.842,4.253-1.589,6.381-2.477
			c0.725-0.327,1.448-0.703,2.197-1.028c1.613-0.701,3.247-1.402,4.838-2.151c1.403-0.653,2.805-1.401,4.209-2.103
			c2.337-1.169,4.721-2.245,6.967-3.6c1.776-1.028,3.576-2.013,5.354-3.04c2.5-1.448,4.979-2.944,7.41-4.535
			c4.322-2.851,8.623-5.751,12.716-8.976c2.734-2.15,5.399-4.35,8.04-6.64c3.273-2.804,6.452-5.703,9.562-8.649
			c3.669-3.553,7.13-7.34,10.521-11.173c1.963-2.196,3.808-4.49,5.725-6.733c1.542-1.776,2.805-3.834,4.302-5.658
			c2.386-2.944,4.395-6.075,6.474-9.21c2.69-3.972,5.144-8.182,7.459-12.39c1.891-3.458,3.74-6.92,5.469-10.519
			c1.12-2.385,2.243-4.675,3.273-7.153c0.795-1.916,1.683-3.786,2.431-5.751c0.89-2.334,1.752-4.627,2.713-6.966
			c0.793-2.01,1.328-4.16,2.078-6.171c0.492-1.356,0.863-2.759,1.238-4.209c0.7-2.43,1.496-4.813,2.057-7.292
			c0.654-2.943,1.472-5.89,1.966-8.837c0.258-1.496,0.417-2.942,0.769-4.394c0.562-2.15,0.726-4.35,1.194-6.546
			c0.419-2.056,0.419-4.253,0.841-6.356c0.257-1.453,0.047-2.946,0.329-4.443c0.653-4.021,0.653-8.135,0.792-12.153
			c0.236-6.174-0.021-12.344-0.187-18.514C398.431,188.679,398.337,188.353,398.293,188.027z"/>
		<path d="M137.308,384.984c-2.851-2.059-5.399-4.489-7.877-6.921c-1.918-1.869-3.739-3.786-5.47-5.842
			c-2.431-2.898-4.769-5.843-6.85-9.068c-1.308-2.012-2.595-4.021-3.786-6.125c-1.099-1.965-2.174-3.973-3.157-5.984
			c-1.075-2.291-2.08-4.629-2.993-7.013c-0.748-1.87-1.542-3.786-2.08-5.751c-0.257-0.979-0.772-1.964-0.912-2.991
			c-0.233-1.729-1.028-3.32-1.308-5.097c-0.117-0.7-0.468-1.357-0.515-2.104c-0.211-2.105-0.748-4.163-1.005-6.314
			c-0.35-3.086-0.771-6.124-0.771-9.255c0-54.56,0-109.117,0-163.675c0-1.729,0.234-3.458,0.234-5.188
			c0-0.513,0.21-0.888,0.702-1.169c0.63-0.327,1.239-0.701,1.893-1.075c3.834-2.197,7.621-4.442,11.431-6.684
			c3.39-1.964,6.732-3.974,10.121-5.892c3.438-2.009,6.85-4.02,10.31-5.983c3.365-2.011,6.755-3.927,10.145-5.844
			c2.991-1.73,5.914-3.459,8.882-5.188c2.196-1.262,4.395-2.525,6.592-3.833c2.945-1.73,5.96-3.32,8.93-5.002
			c2.711-1.497,5.423-2.993,8.133-4.489c1.122-0.654,2.245-1.262,3.273-1.963c0.842-0.562,0.795-1.356-0.094-1.776
			c-0.584-0.327-1.099-0.701-1.683-0.981c-3.085-1.685-6.101-3.554-9.21-5.284c-2.524-1.403-5.001-2.898-7.526-4.3
			c-3.927-2.244-7.761-4.583-11.734-6.732c-4.816-2.712-9.49-5.61-14.399-8.134c-2.617-1.309-5.259-2.478-7.947-3.461
			c-1.94-0.701-3.857-1.541-5.915-1.917c-0.21-0.047-0.397-0.092-0.584-0.233c-0.608-0.374-1.31-0.562-2.058-0.562
			c-0.188,0-0.42,0-0.585-0.141c-0.771-0.468-1.707-0.42-2.547-0.607c-1.893-0.561-3.834-0.795-5.751-1.169
			c-1.355-0.282-2.688-0.514-4.068-0.467c-1.261,0-2.478-0.326-3.692-0.514c-2.291-0.327-4.582-0.28-6.872-0.234
			c-1.777,0.047-3.553-0.093-5.282,0.422c-0.117,0-0.234-0.047-0.374-0.047l0,0c-0.327,0-0.654,0-0.934,0.047
			c-1.823,0.28-3.646,0.326-5.447,0.326c-2.221,0-4.326,0.982-6.546,0.889c-0.116,0-0.257,0.047-0.35,0.093
			c-1.59,0.842-3.413,0.842-5.119,1.31c-1.379,0.421-2.782,0.795-4.139,1.263c-1.823,0.607-3.623,1.308-5.375,2.103
			c-2.268,1.03-4.535,2.011-6.686,3.32c-3.366,2.011-6.661,4.208-9.677,6.733c-3.179,2.712-6.031,5.609-8.812,8.648
			c-0.888,0.981-1.637,2.104-2.548,3.039c-1.309,1.496-2.477,3.085-3.553,4.768c-2.291,3.6-4.488,7.292-6.522,11.127
			c-2.081,3.88-4.091,7.808-6.007,11.782c-1.497,3.131-2.828,6.311-4.162,9.536c-0.303,0.702-0.7,1.402-0.958,2.198
			c-0.654,1.917-1.379,3.833-2.08,5.75c-0.654,1.964-1.263,3.88-1.964,5.75c-0.607,1.542-1.098,3.085-1.449,4.675
			c-0.327,1.355-0.795,2.664-1.122,3.973c-0.42,1.588-0.748,3.226-1.216,4.815c-0.514,1.59-0.562,3.32-1.169,4.91
			C4.978,157.684,5,157.917,5,158.197c0,0.468-0.164,0.888-0.257,1.355c-0.514,2.386-0.958,4.77-1.426,7.106c0,0.047,0,0.094,0,0.14
			c-0.281,2.385-0.912,4.722-0.912,7.154c0,0.14-0.046,0.233-0.093,0.373c-0.304,1.216-0.468,2.433-0.49,3.695
			c-0.023,1.215-0.117,2.43-0.28,3.599c-0.492,3.273-0.678,6.546-0.678,9.865c0.023,5.796,0.047,11.593,0,17.437
			c0,1.73,0.093,3.459,0.327,5.188c0.467,3.459,0.607,6.967,1.122,10.426c0.445,2.803,0.888,5.562,1.238,8.369
			c0.164,1.215,0.445,2.337,0.678,3.553c0.374,1.822,0.701,3.6,1.123,5.424c0.374,1.634,0.888,3.271,1.168,4.956
			c0.515,2.524,1.355,4.955,2.034,7.432c0.257,0.981,0.467,1.965,0.795,2.946c0.748,2.243,1.518,4.489,2.268,6.732
			c0.607,1.729,1.191,3.506,1.917,5.234c0.981,2.433,1.846,4.91,2.992,7.342c1.028,2.196,1.917,4.44,2.946,6.59
			c1.45,3.039,2.946,5.984,4.489,8.975c1.939,3.741,4.043,7.436,6.264,11.035c2.618,4.253,5.377,8.366,8.298,12.437
			c3.085,4.301,6.381,8.414,9.794,12.435c2.43,2.805,4.932,5.564,7.48,8.182c3.32,3.506,6.732,6.873,10.378,10.005
			c2.385,2.103,4.769,4.254,7.199,6.217c2.876,2.386,5.798,4.676,8.79,6.873c3.226,2.338,6.544,4.536,9.912,6.686
			c1.495,0.935,2.945,1.966,4.488,2.805c1.8,1.028,3.553,2.104,5.376,2.991c2.197,1.17,4.324,2.479,6.569,3.648
			c3.132,1.59,6.381,2.991,9.584,4.487c2.641,1.216,5.33,2.384,8.065,3.459c0.795,0.328,1.636,0.655,2.454,0.981
			c1.053,0.42,2.082,0.796,3.157,1.17c1.169,0.417,2.361,0.747,3.483,1.309c1.075,0.468,2.291,0.42,3.296,1.075
			c0.165,0.094,0.42,0,0.608,0c0.233,0,0.515-0.048,0.607-0.282c0.187-0.325-0.023-0.562-0.234-0.748
			C138.875,386.107,138.101,385.546,137.308,384.984z"/>
	</g>
</g>
<g>
</g>
<g>
</g>
<g>
</g>
<g>
</g>
<g>
</g>
<g>
</g>
<g>
</g>
<g>
</g>
<g>
</g>
<g>
</g>
<g>
</g>
<g>
</g>
<g>
</g>
<g>
</g>
<g>
</g>
</svg>
